<?xml version="1.0" encoding="UTF-8"?>
<svg id="Layer_2" xmlns="http://www.w3.org/2000/svg" viewBox="0 0 297.28 158.91">
  <defs>
    <style>
      .cls-1 {
        fill: #ff4200;
      }

      .cls-2 {
        fill: #fff;
      }

      .cls-3 {
        fill: #483dff;
      }
    </style>
  </defs>
  <g id="Layer_1-2" data-name="Layer_1">
    <g>
      <g>
        <path class="cls-2" d="M153.87,158.91h-30.46v-58.75c0-12.43-.65-20.47-1.95-24.12-1.3-3.65-3.41-6.49-6.34-8.51-2.93-2.02-6.45-3.04-10.57-3.04-5.28,0-10.01,1.45-14.2,4.34-4.19,2.89-7.06,6.72-8.62,11.49-1.55,4.77-2.33,13.59-2.33,26.45v52.14h-30.46V43.79h28.29v16.91c10.04-13.01,22.69-19.51,37.94-19.51,6.72,0,12.86,1.21,18.43,3.63,5.56,2.42,9.77,5.51,12.63,9.27,2.85,3.76,4.84,8.02,5.96,12.79s1.68,11.6,1.68,20.49v71.54Z"/>
        <path class="cls-2" d="M157.13,28.18V0h30.46v28.18h-30.46ZM157.13,158.91V43.79h30.46v115.12h-30.46Z"/>
        <path class="cls-2" d="M190.84,158.91V0h30.46v84.33l35.66-40.54h37.51l-39.35,42.06,42.17,73.06h-32.84l-28.94-51.71-14.2,14.85v36.86h-30.46Z"/>
      </g>
      <rect class="cls-3" y="43.79" width="30.46" height="115.12"/>
      <rect class="cls-1" x="15.23" width="30.46" height="115.12"/>
    </g>
  </g>
</svg>